<svg xmlns="http://www.w3.org/2000/svg" width="100" height="50">
  <path fill="none" stroke="#000" stroke-width="2" d="M5 15H25M5 25H25M5 35H25M5 45H25"/>
  <path d="M30 5V55H70.95238c11.267908 0 20-9.000045 20-20s-8.732091-20-20-20H30zm2.857142 2.857143H70.95238c9.760662 0 16.666666 7.639955 16.666666 17.142857 0 9.502902-7.382194 17.142857-17.142856 17.142857H32.857142V7.857143z"/>
  <path fill="none" stroke="#000" stroke-width="3" d="M79 15a4 4 0 1 1-8 0 4 4 0 1 1 8 0zM79 25a4 4 0 1 1-8 0 4 4 0 1 1 8 0zM79 35a4 4 0 1 1-8 0 4 4 0 1 1 8 0zM79 45a4 4 0 1 1-8 0 4 4 0 1 1 8 0z" />
  <circle cx="5" cy="15" r="3" fill="red"/>
</svg>
